<mxfile host="65bd71144e">
    <diagram id="HoXUhCEhnUhnK-8WXeVV" name="管理">
        <mxGraphModel dx="729" dy="949" grid="1" gridSize="10" guides="1" tooltips="1" connect="1" arrows="1" fold="1" page="1" pageScale="1" pageWidth="827" pageHeight="1169" math="0" shadow="0">
            <root>
                <mxCell id="0"/>
                <mxCell id="1" parent="0"/>
                <mxCell id="11" value="admins(管理者)" style="shape=table;startSize=30;container=1;collapsible=0;childLayout=tableLayout;fontStyle=1;align=center;" parent="1" vertex="1">
                    <mxGeometry x="30" y="30" width="700" height="330" as="geometry"/>
                </mxCell>
                <mxCell id="12" value="" style="shape=partialRectangle;html=1;whiteSpace=wrap;collapsible=0;dropTarget=0;pointerEvents=0;fillColor=none;top=0;left=0;bottom=0;right=0;points=[[0,0.5],[1,0.5]];portConstraint=eastwest;" parent="11" vertex="1">
                    <mxGeometry y="30" width="700" height="30" as="geometry"/>
                </mxCell>
                <mxCell id="13" value="カラム名" style="shape=partialRectangle;html=1;whiteSpace=wrap;connectable=0;fillColor=none;top=0;left=0;bottom=0;right=0;overflow=hidden;" parent="12" vertex="1">
                    <mxGeometry width="70" height="30" as="geometry"/>
                </mxCell>
                <mxCell id="14" value="説明" style="shape=partialRectangle;html=1;whiteSpace=wrap;connectable=0;fillColor=none;top=0;left=0;bottom=0;right=0;overflow=hidden;" parent="12" vertex="1">
                    <mxGeometry x="70" width="100" height="30" as="geometry"/>
                </mxCell>
                <mxCell id="15" value="データ型" style="shape=partialRectangle;html=1;whiteSpace=wrap;connectable=0;fillColor=none;top=0;left=0;bottom=0;right=0;overflow=hidden;" parent="12" vertex="1">
                    <mxGeometry x="170" width="70" height="30" as="geometry"/>
                </mxCell>
                <mxCell id="86" value="文字数" style="shape=partialRectangle;html=1;whiteSpace=wrap;connectable=0;fillColor=none;top=0;left=0;bottom=0;right=0;overflow=hidden;" parent="12" vertex="1">
                    <mxGeometry x="240" width="60" height="30" as="geometry"/>
                </mxCell>
                <mxCell id="94" value="インデックス" style="shape=partialRectangle;html=1;whiteSpace=wrap;connectable=0;fillColor=none;top=0;left=0;bottom=0;right=0;overflow=hidden;" parent="12" vertex="1">
                    <mxGeometry x="300" width="80" height="30" as="geometry"/>
                </mxCell>
                <mxCell id="110" value="補足説明" style="shape=partialRectangle;html=1;whiteSpace=wrap;connectable=0;fillColor=none;top=0;left=0;bottom=0;right=0;overflow=hidden;" parent="12" vertex="1">
                    <mxGeometry x="380" width="190" height="30" as="geometry"/>
                </mxCell>
                <mxCell id="102" value="制約" style="shape=partialRectangle;html=1;whiteSpace=wrap;connectable=0;fillColor=none;top=0;left=0;bottom=0;right=0;overflow=hidden;" parent="12" vertex="1">
                    <mxGeometry x="570" width="130" height="30" as="geometry"/>
                </mxCell>
                <mxCell id="74" value="" style="shape=partialRectangle;html=1;whiteSpace=wrap;collapsible=0;dropTarget=0;pointerEvents=0;fillColor=none;top=0;left=0;bottom=0;right=0;points=[[0,0.5],[1,0.5]];portConstraint=eastwest;" parent="11" vertex="1">
                    <mxGeometry y="60" width="700" height="30" as="geometry"/>
                </mxCell>
                <mxCell id="75" value="id" style="shape=partialRectangle;html=1;whiteSpace=wrap;connectable=0;fillColor=none;top=0;left=0;bottom=0;right=0;overflow=hidden;" parent="74" vertex="1">
                    <mxGeometry width="70" height="30" as="geometry"/>
                </mxCell>
                <mxCell id="76" value="管理者ID" style="shape=partialRectangle;html=1;whiteSpace=wrap;connectable=0;fillColor=none;top=0;left=0;bottom=0;right=0;overflow=hidden;" parent="74" vertex="1">
                    <mxGeometry x="70" width="100" height="30" as="geometry"/>
                </mxCell>
                <mxCell id="77" value="INT" style="shape=partialRectangle;html=1;whiteSpace=wrap;connectable=0;fillColor=none;top=0;left=0;bottom=0;right=0;overflow=hidden;" parent="74" vertex="1">
                    <mxGeometry x="170" width="70" height="30" as="geometry"/>
                </mxCell>
                <mxCell id="87" style="shape=partialRectangle;html=1;whiteSpace=wrap;connectable=0;fillColor=none;top=0;left=0;bottom=0;right=0;overflow=hidden;" parent="74" vertex="1">
                    <mxGeometry x="240" width="60" height="30" as="geometry"/>
                </mxCell>
                <mxCell id="95" value="PK" style="shape=partialRectangle;html=1;whiteSpace=wrap;connectable=0;fillColor=none;top=0;left=0;bottom=0;right=0;overflow=hidden;" parent="74" vertex="1">
                    <mxGeometry x="300" width="80" height="30" as="geometry"/>
                </mxCell>
                <mxCell id="111" style="shape=partialRectangle;html=1;whiteSpace=wrap;connectable=0;fillColor=none;top=0;left=0;bottom=0;right=0;overflow=hidden;" parent="74" vertex="1">
                    <mxGeometry x="380" width="190" height="30" as="geometry"/>
                </mxCell>
                <mxCell id="103" value="AUTO INCREMENT" style="shape=partialRectangle;html=1;whiteSpace=wrap;connectable=0;fillColor=none;top=0;left=0;bottom=0;right=0;overflow=hidden;" parent="74" vertex="1">
                    <mxGeometry x="570" width="130" height="30" as="geometry"/>
                </mxCell>
                <mxCell id="118" value="" style="shape=partialRectangle;html=1;whiteSpace=wrap;collapsible=0;dropTarget=0;pointerEvents=0;fillColor=none;top=0;left=0;bottom=0;right=0;points=[[0,0.5],[1,0.5]];portConstraint=eastwest;" parent="11" vertex="1">
                    <mxGeometry y="90" width="700" height="30" as="geometry"/>
                </mxCell>
                <mxCell id="119" value="login_id" style="shape=partialRectangle;html=1;whiteSpace=wrap;connectable=0;fillColor=none;top=0;left=0;bottom=0;right=0;overflow=hidden;" parent="118" vertex="1">
                    <mxGeometry width="70" height="30" as="geometry"/>
                </mxCell>
                <mxCell id="120" value="ログインID" style="shape=partialRectangle;html=1;whiteSpace=wrap;connectable=0;fillColor=none;top=0;left=0;bottom=0;right=0;overflow=hidden;" parent="118" vertex="1">
                    <mxGeometry x="70" width="100" height="30" as="geometry"/>
                </mxCell>
                <mxCell id="121" value="INT" style="shape=partialRectangle;html=1;whiteSpace=wrap;connectable=0;fillColor=none;top=0;left=0;bottom=0;right=0;overflow=hidden;" parent="118" vertex="1">
                    <mxGeometry x="170" width="70" height="30" as="geometry"/>
                </mxCell>
                <mxCell id="122" style="shape=partialRectangle;html=1;whiteSpace=wrap;connectable=0;fillColor=none;top=0;left=0;bottom=0;right=0;overflow=hidden;" parent="118" vertex="1">
                    <mxGeometry x="240" width="60" height="30" as="geometry"/>
                </mxCell>
                <mxCell id="123" style="shape=partialRectangle;html=1;whiteSpace=wrap;connectable=0;fillColor=none;top=0;left=0;bottom=0;right=0;overflow=hidden;" parent="118" vertex="1">
                    <mxGeometry x="300" width="80" height="30" as="geometry"/>
                </mxCell>
                <mxCell id="124" style="shape=partialRectangle;html=1;whiteSpace=wrap;connectable=0;fillColor=none;top=0;left=0;bottom=0;right=0;overflow=hidden;" parent="118" vertex="1">
                    <mxGeometry x="380" width="190" height="30" as="geometry"/>
                </mxCell>
                <mxCell id="125" value="NOT NULL" style="shape=partialRectangle;html=1;whiteSpace=wrap;connectable=0;fillColor=none;top=0;left=0;bottom=0;right=0;overflow=hidden;" parent="118" vertex="1">
                    <mxGeometry x="570" width="130" height="30" as="geometry"/>
                </mxCell>
                <mxCell id="20" value="" style="shape=partialRectangle;html=1;whiteSpace=wrap;collapsible=0;dropTarget=0;pointerEvents=0;fillColor=none;top=0;left=0;bottom=0;right=0;points=[[0,0.5],[1,0.5]];portConstraint=eastwest;" parent="11" vertex="1">
                    <mxGeometry y="120" width="700" height="30" as="geometry"/>
                </mxCell>
                <mxCell id="21" value="password" style="shape=partialRectangle;html=1;whiteSpace=wrap;connectable=0;fillColor=none;top=0;left=0;bottom=0;right=0;overflow=hidden;" parent="20" vertex="1">
                    <mxGeometry width="70" height="30" as="geometry"/>
                </mxCell>
                <mxCell id="22" value="パスワード" style="shape=partialRectangle;html=1;whiteSpace=wrap;connectable=0;fillColor=none;top=0;left=0;bottom=0;right=0;overflow=hidden;" parent="20" vertex="1">
                    <mxGeometry x="70" width="100" height="30" as="geometry"/>
                </mxCell>
                <mxCell id="23" value="VARCHAR" style="shape=partialRectangle;html=1;whiteSpace=wrap;connectable=0;fillColor=none;top=0;left=0;bottom=0;right=0;overflow=hidden;" parent="20" vertex="1">
                    <mxGeometry x="170" width="70" height="30" as="geometry"/>
                </mxCell>
                <mxCell id="89" value="32" style="shape=partialRectangle;html=1;whiteSpace=wrap;connectable=0;fillColor=none;top=0;left=0;bottom=0;right=0;overflow=hidden;" parent="20" vertex="1">
                    <mxGeometry x="240" width="60" height="30" as="geometry"/>
                </mxCell>
                <mxCell id="97" style="shape=partialRectangle;html=1;whiteSpace=wrap;connectable=0;fillColor=none;top=0;left=0;bottom=0;right=0;overflow=hidden;" parent="20" vertex="1">
                    <mxGeometry x="300" width="80" height="30" as="geometry"/>
                </mxCell>
                <mxCell id="113" value="ハッシュ化したパスワード" style="shape=partialRectangle;html=1;whiteSpace=wrap;connectable=0;fillColor=none;top=0;left=0;bottom=0;right=0;overflow=hidden;" parent="20" vertex="1">
                    <mxGeometry x="380" width="190" height="30" as="geometry"/>
                </mxCell>
                <mxCell id="105" value="NOT NULL" style="shape=partialRectangle;html=1;whiteSpace=wrap;connectable=0;fillColor=none;top=0;left=0;bottom=0;right=0;overflow=hidden;" parent="20" vertex="1">
                    <mxGeometry x="570" width="130" height="30" as="geometry"/>
                </mxCell>
                <mxCell id="24" value="" style="shape=partialRectangle;html=1;whiteSpace=wrap;collapsible=0;dropTarget=0;pointerEvents=0;fillColor=none;top=0;left=0;bottom=0;right=0;points=[[0,0.5],[1,0.5]];portConstraint=eastwest;" parent="11" vertex="1">
                    <mxGeometry y="150" width="700" height="30" as="geometry"/>
                </mxCell>
                <mxCell id="25" value="email" style="shape=partialRectangle;html=1;whiteSpace=wrap;connectable=0;fillColor=none;top=0;left=0;bottom=0;right=0;overflow=hidden;" parent="24" vertex="1">
                    <mxGeometry width="70" height="30" as="geometry"/>
                </mxCell>
                <mxCell id="26" value="メールアドレス" style="shape=partialRectangle;html=1;whiteSpace=wrap;connectable=0;fillColor=none;top=0;left=0;bottom=0;right=0;overflow=hidden;" parent="24" vertex="1">
                    <mxGeometry x="70" width="100" height="30" as="geometry"/>
                </mxCell>
                <mxCell id="27" value="VARCHAR" style="shape=partialRectangle;html=1;whiteSpace=wrap;connectable=0;fillColor=none;top=0;left=0;bottom=0;right=0;overflow=hidden;" parent="24" vertex="1">
                    <mxGeometry x="170" width="70" height="30" as="geometry"/>
                </mxCell>
                <mxCell id="90" value="50" style="shape=partialRectangle;html=1;whiteSpace=wrap;connectable=0;fillColor=none;top=0;left=0;bottom=0;right=0;overflow=hidden;" parent="24" vertex="1">
                    <mxGeometry x="240" width="60" height="30" as="geometry"/>
                </mxCell>
                <mxCell id="98" style="shape=partialRectangle;html=1;whiteSpace=wrap;connectable=0;fillColor=none;top=0;left=0;bottom=0;right=0;overflow=hidden;" parent="24" vertex="1">
                    <mxGeometry x="300" width="80" height="30" as="geometry"/>
                </mxCell>
                <mxCell id="114" style="shape=partialRectangle;html=1;whiteSpace=wrap;connectable=0;fillColor=none;top=0;left=0;bottom=0;right=0;overflow=hidden;" parent="24" vertex="1">
                    <mxGeometry x="380" width="190" height="30" as="geometry"/>
                </mxCell>
                <mxCell id="106" value="NOT NULL" style="shape=partialRectangle;html=1;whiteSpace=wrap;connectable=0;fillColor=none;top=0;left=0;bottom=0;right=0;overflow=hidden;" parent="24" vertex="1">
                    <mxGeometry x="570" width="130" height="30" as="geometry"/>
                </mxCell>
                <mxCell id="198" value="" style="shape=partialRectangle;html=1;whiteSpace=wrap;collapsible=0;dropTarget=0;pointerEvents=0;fillColor=none;top=0;left=0;bottom=0;right=0;points=[[0,0.5],[1,0.5]];portConstraint=eastwest;" vertex="1" parent="11">
                    <mxGeometry y="180" width="700" height="30" as="geometry"/>
                </mxCell>
                <mxCell id="199" value="sex" style="shape=partialRectangle;html=1;whiteSpace=wrap;connectable=0;fillColor=none;top=0;left=0;bottom=0;right=0;overflow=hidden;" vertex="1" parent="198">
                    <mxGeometry width="70" height="30" as="geometry"/>
                </mxCell>
                <mxCell id="200" value="性別" style="shape=partialRectangle;html=1;whiteSpace=wrap;connectable=0;fillColor=none;top=0;left=0;bottom=0;right=0;overflow=hidden;" vertex="1" parent="198">
                    <mxGeometry x="70" width="100" height="30" as="geometry"/>
                </mxCell>
                <mxCell id="201" value="INT" style="shape=partialRectangle;html=1;whiteSpace=wrap;connectable=0;fillColor=none;top=0;left=0;bottom=0;right=0;overflow=hidden;" vertex="1" parent="198">
                    <mxGeometry x="170" width="70" height="30" as="geometry"/>
                </mxCell>
                <mxCell id="202" style="shape=partialRectangle;html=1;whiteSpace=wrap;connectable=0;fillColor=none;top=0;left=0;bottom=0;right=0;overflow=hidden;" vertex="1" parent="198">
                    <mxGeometry x="240" width="60" height="30" as="geometry"/>
                </mxCell>
                <mxCell id="203" style="shape=partialRectangle;html=1;whiteSpace=wrap;connectable=0;fillColor=none;top=0;left=0;bottom=0;right=0;overflow=hidden;" vertex="1" parent="198">
                    <mxGeometry x="300" width="80" height="30" as="geometry"/>
                </mxCell>
                <mxCell id="204" value="1 : 男性 / 2 : 女性" style="shape=partialRectangle;html=1;whiteSpace=wrap;connectable=0;fillColor=none;top=0;left=0;bottom=0;right=0;overflow=hidden;" vertex="1" parent="198">
                    <mxGeometry x="380" width="190" height="30" as="geometry"/>
                </mxCell>
                <mxCell id="205" value="NOT NULL" style="shape=partialRectangle;html=1;whiteSpace=wrap;connectable=0;fillColor=none;top=0;left=0;bottom=0;right=0;overflow=hidden;" vertex="1" parent="198">
                    <mxGeometry x="570" width="130" height="30" as="geometry"/>
                </mxCell>
                <mxCell id="28" value="" style="shape=partialRectangle;html=1;whiteSpace=wrap;collapsible=0;dropTarget=0;pointerEvents=0;fillColor=none;top=0;left=0;bottom=0;right=0;points=[[0,0.5],[1,0.5]];portConstraint=eastwest;" parent="11" vertex="1">
                    <mxGeometry y="210" width="700" height="30" as="geometry"/>
                </mxCell>
                <mxCell id="29" value="officer" style="shape=partialRectangle;html=1;whiteSpace=wrap;connectable=0;fillColor=none;top=0;left=0;bottom=0;right=0;overflow=hidden;" parent="28" vertex="1">
                    <mxGeometry width="70" height="30" as="geometry"/>
                </mxCell>
                <mxCell id="30" value="役職" style="shape=partialRectangle;html=1;whiteSpace=wrap;connectable=0;fillColor=none;top=0;left=0;bottom=0;right=0;overflow=hidden;" parent="28" vertex="1">
                    <mxGeometry x="70" width="100" height="30" as="geometry"/>
                </mxCell>
                <mxCell id="31" value="INT" style="shape=partialRectangle;html=1;whiteSpace=wrap;connectable=0;fillColor=none;top=0;left=0;bottom=0;right=0;overflow=hidden;" parent="28" vertex="1">
                    <mxGeometry x="170" width="70" height="30" as="geometry"/>
                </mxCell>
                <mxCell id="91" style="shape=partialRectangle;html=1;whiteSpace=wrap;connectable=0;fillColor=none;top=0;left=0;bottom=0;right=0;overflow=hidden;" parent="28" vertex="1">
                    <mxGeometry x="240" width="60" height="30" as="geometry"/>
                </mxCell>
                <mxCell id="99" style="shape=partialRectangle;html=1;whiteSpace=wrap;connectable=0;fillColor=none;top=0;left=0;bottom=0;right=0;overflow=hidden;" parent="28" vertex="1">
                    <mxGeometry x="300" width="80" height="30" as="geometry"/>
                </mxCell>
                <mxCell id="115" value="1 : 店長 / 2 : スタッフ / 3 : 先生" style="shape=partialRectangle;html=1;whiteSpace=wrap;connectable=0;fillColor=none;top=0;left=0;bottom=0;right=0;overflow=hidden;" parent="28" vertex="1">
                    <mxGeometry x="380" width="190" height="30" as="geometry"/>
                </mxCell>
                <mxCell id="107" value="NOT NULL" style="shape=partialRectangle;html=1;whiteSpace=wrap;connectable=0;fillColor=none;top=0;left=0;bottom=0;right=0;overflow=hidden;" parent="28" vertex="1">
                    <mxGeometry x="570" width="130" height="30" as="geometry"/>
                </mxCell>
                <mxCell id="32" value="" style="shape=partialRectangle;html=1;whiteSpace=wrap;collapsible=0;dropTarget=0;pointerEvents=0;fillColor=none;top=0;left=0;bottom=0;right=0;points=[[0,0.5],[1,0.5]];portConstraint=eastwest;" parent="11" vertex="1">
                    <mxGeometry y="240" width="700" height="30" as="geometry"/>
                </mxCell>
                <mxCell id="33" value="profile" style="shape=partialRectangle;html=1;whiteSpace=wrap;connectable=0;fillColor=none;top=0;left=0;bottom=0;right=0;overflow=hidden;" parent="32" vertex="1">
                    <mxGeometry width="70" height="30" as="geometry"/>
                </mxCell>
                <mxCell id="34" value="プロフィール" style="shape=partialRectangle;html=1;whiteSpace=wrap;connectable=0;fillColor=none;top=0;left=0;bottom=0;right=0;overflow=hidden;" parent="32" vertex="1">
                    <mxGeometry x="70" width="100" height="30" as="geometry"/>
                </mxCell>
                <mxCell id="35" value="VARCHAR" style="shape=partialRectangle;html=1;whiteSpace=wrap;connectable=0;fillColor=none;top=0;left=0;bottom=0;right=0;overflow=hidden;" parent="32" vertex="1">
                    <mxGeometry x="170" width="70" height="30" as="geometry"/>
                </mxCell>
                <mxCell id="92" value="100" style="shape=partialRectangle;html=1;whiteSpace=wrap;connectable=0;fillColor=none;top=0;left=0;bottom=0;right=0;overflow=hidden;" parent="32" vertex="1">
                    <mxGeometry x="240" width="60" height="30" as="geometry"/>
                </mxCell>
                <mxCell id="100" style="shape=partialRectangle;html=1;whiteSpace=wrap;connectable=0;fillColor=none;top=0;left=0;bottom=0;right=0;overflow=hidden;" parent="32" vertex="1">
                    <mxGeometry x="300" width="80" height="30" as="geometry"/>
                </mxCell>
                <mxCell id="116" style="shape=partialRectangle;html=1;whiteSpace=wrap;connectable=0;fillColor=none;top=0;left=0;bottom=0;right=0;overflow=hidden;" parent="32" vertex="1">
                    <mxGeometry x="380" width="190" height="30" as="geometry"/>
                </mxCell>
                <mxCell id="108" value="NOT NULL&lt;br&gt;DEFAULT ''" style="shape=partialRectangle;html=1;whiteSpace=wrap;connectable=0;fillColor=none;top=0;left=0;bottom=0;right=0;overflow=hidden;" parent="32" vertex="1">
                    <mxGeometry x="570" width="130" height="30" as="geometry"/>
                </mxCell>
                <mxCell id="206" value="" style="shape=partialRectangle;html=1;whiteSpace=wrap;collapsible=0;dropTarget=0;pointerEvents=0;fillColor=none;top=0;left=0;bottom=0;right=0;points=[[0,0.5],[1,0.5]];portConstraint=eastwest;" vertex="1" parent="11">
                    <mxGeometry y="270" width="700" height="30" as="geometry"/>
                </mxCell>
                <mxCell id="207" value="birth" style="shape=partialRectangle;html=1;whiteSpace=wrap;connectable=0;fillColor=none;top=0;left=0;bottom=0;right=0;overflow=hidden;" vertex="1" parent="206">
                    <mxGeometry width="70" height="30" as="geometry"/>
                </mxCell>
                <mxCell id="208" value="生年月日" style="shape=partialRectangle;html=1;whiteSpace=wrap;connectable=0;fillColor=none;top=0;left=0;bottom=0;right=0;overflow=hidden;" vertex="1" parent="206">
                    <mxGeometry x="70" width="100" height="30" as="geometry"/>
                </mxCell>
                <mxCell id="209" value="DATE" style="shape=partialRectangle;html=1;whiteSpace=wrap;connectable=0;fillColor=none;top=0;left=0;bottom=0;right=0;overflow=hidden;" vertex="1" parent="206">
                    <mxGeometry x="170" width="70" height="30" as="geometry"/>
                </mxCell>
                <mxCell id="210" style="shape=partialRectangle;html=1;whiteSpace=wrap;connectable=0;fillColor=none;top=0;left=0;bottom=0;right=0;overflow=hidden;" vertex="1" parent="206">
                    <mxGeometry x="240" width="60" height="30" as="geometry"/>
                </mxCell>
                <mxCell id="211" style="shape=partialRectangle;html=1;whiteSpace=wrap;connectable=0;fillColor=none;top=0;left=0;bottom=0;right=0;overflow=hidden;" vertex="1" parent="206">
                    <mxGeometry x="300" width="80" height="30" as="geometry"/>
                </mxCell>
                <mxCell id="212" style="shape=partialRectangle;html=1;whiteSpace=wrap;connectable=0;fillColor=none;top=0;left=0;bottom=0;right=0;overflow=hidden;" vertex="1" parent="206">
                    <mxGeometry x="380" width="190" height="30" as="geometry"/>
                </mxCell>
                <mxCell id="213" value="NOT NULL" style="shape=partialRectangle;html=1;whiteSpace=wrap;connectable=0;fillColor=none;top=0;left=0;bottom=0;right=0;overflow=hidden;" vertex="1" parent="206">
                    <mxGeometry x="570" width="130" height="30" as="geometry"/>
                </mxCell>
                <mxCell id="36" value="" style="shape=partialRectangle;html=1;whiteSpace=wrap;collapsible=0;dropTarget=0;pointerEvents=0;fillColor=none;top=0;left=0;bottom=0;right=0;points=[[0,0.5],[1,0.5]];portConstraint=eastwest;" parent="11" vertex="1">
                    <mxGeometry y="300" width="700" height="30" as="geometry"/>
                </mxCell>
                <mxCell id="37" value="face_img" style="shape=partialRectangle;html=1;whiteSpace=wrap;connectable=0;fillColor=none;top=0;left=0;bottom=0;right=0;overflow=hidden;" parent="36" vertex="1">
                    <mxGeometry width="70" height="30" as="geometry"/>
                </mxCell>
                <mxCell id="38" value="顔写真" style="shape=partialRectangle;html=1;whiteSpace=wrap;connectable=0;fillColor=none;top=0;left=0;bottom=0;right=0;overflow=hidden;" parent="36" vertex="1">
                    <mxGeometry x="70" width="100" height="30" as="geometry"/>
                </mxCell>
                <mxCell id="39" value="VARCHAR" style="shape=partialRectangle;html=1;whiteSpace=wrap;connectable=0;fillColor=none;top=0;left=0;bottom=0;right=0;overflow=hidden;" parent="36" vertex="1">
                    <mxGeometry x="170" width="70" height="30" as="geometry"/>
                </mxCell>
                <mxCell id="93" value="30" style="shape=partialRectangle;html=1;whiteSpace=wrap;connectable=0;fillColor=none;top=0;left=0;bottom=0;right=0;overflow=hidden;" parent="36" vertex="1">
                    <mxGeometry x="240" width="60" height="30" as="geometry"/>
                </mxCell>
                <mxCell id="101" style="shape=partialRectangle;html=1;whiteSpace=wrap;connectable=0;fillColor=none;top=0;left=0;bottom=0;right=0;overflow=hidden;" parent="36" vertex="1">
                    <mxGeometry x="300" width="80" height="30" as="geometry"/>
                </mxCell>
                <mxCell id="117" value="ファイル名" style="shape=partialRectangle;html=1;whiteSpace=wrap;connectable=0;fillColor=none;top=0;left=0;bottom=0;right=0;overflow=hidden;" parent="36" vertex="1">
                    <mxGeometry x="380" width="190" height="30" as="geometry"/>
                </mxCell>
                <mxCell id="109" value="NOT NULL" style="shape=partialRectangle;html=1;whiteSpace=wrap;connectable=0;fillColor=none;top=0;left=0;bottom=0;right=0;overflow=hidden;" parent="36" vertex="1">
                    <mxGeometry x="570" width="130" height="30" as="geometry"/>
                </mxCell>
                <mxCell id="149" value="product(商品)" style="shape=table;startSize=30;container=1;collapsible=0;childLayout=tableLayout;fontStyle=1;align=center;" parent="1" vertex="1">
                    <mxGeometry x="30" y="390" width="700" height="210" as="geometry"/>
                </mxCell>
                <mxCell id="150" value="" style="shape=partialRectangle;html=1;whiteSpace=wrap;collapsible=0;dropTarget=0;pointerEvents=0;fillColor=none;top=0;left=0;bottom=0;right=0;points=[[0,0.5],[1,0.5]];portConstraint=eastwest;" parent="149" vertex="1">
                    <mxGeometry y="30" width="700" height="30" as="geometry"/>
                </mxCell>
                <mxCell id="151" value="カラム名" style="shape=partialRectangle;html=1;whiteSpace=wrap;connectable=0;fillColor=none;top=0;left=0;bottom=0;right=0;overflow=hidden;" parent="150" vertex="1">
                    <mxGeometry width="70" height="30" as="geometry"/>
                </mxCell>
                <mxCell id="152" value="説明" style="shape=partialRectangle;html=1;whiteSpace=wrap;connectable=0;fillColor=none;top=0;left=0;bottom=0;right=0;overflow=hidden;" parent="150" vertex="1">
                    <mxGeometry x="70" width="100" height="30" as="geometry"/>
                </mxCell>
                <mxCell id="153" value="データ型" style="shape=partialRectangle;html=1;whiteSpace=wrap;connectable=0;fillColor=none;top=0;left=0;bottom=0;right=0;overflow=hidden;" parent="150" vertex="1">
                    <mxGeometry x="170" width="70" height="30" as="geometry"/>
                </mxCell>
                <mxCell id="154" value="文字数" style="shape=partialRectangle;html=1;whiteSpace=wrap;connectable=0;fillColor=none;top=0;left=0;bottom=0;right=0;overflow=hidden;" parent="150" vertex="1">
                    <mxGeometry x="240" width="60" height="30" as="geometry"/>
                </mxCell>
                <mxCell id="155" value="インデックス" style="shape=partialRectangle;html=1;whiteSpace=wrap;connectable=0;fillColor=none;top=0;left=0;bottom=0;right=0;overflow=hidden;" parent="150" vertex="1">
                    <mxGeometry x="300" width="80" height="30" as="geometry"/>
                </mxCell>
                <mxCell id="156" value="補足説明" style="shape=partialRectangle;html=1;whiteSpace=wrap;connectable=0;fillColor=none;top=0;left=0;bottom=0;right=0;overflow=hidden;" parent="150" vertex="1">
                    <mxGeometry x="380" width="190" height="30" as="geometry"/>
                </mxCell>
                <mxCell id="157" value="制約" style="shape=partialRectangle;html=1;whiteSpace=wrap;connectable=0;fillColor=none;top=0;left=0;bottom=0;right=0;overflow=hidden;" parent="150" vertex="1">
                    <mxGeometry x="570" width="130" height="30" as="geometry"/>
                </mxCell>
                <mxCell id="158" value="" style="shape=partialRectangle;html=1;whiteSpace=wrap;collapsible=0;dropTarget=0;pointerEvents=0;fillColor=none;top=0;left=0;bottom=0;right=0;points=[[0,0.5],[1,0.5]];portConstraint=eastwest;" parent="149" vertex="1">
                    <mxGeometry y="60" width="700" height="30" as="geometry"/>
                </mxCell>
                <mxCell id="159" value="id" style="shape=partialRectangle;html=1;whiteSpace=wrap;connectable=0;fillColor=none;top=0;left=0;bottom=0;right=0;overflow=hidden;" parent="158" vertex="1">
                    <mxGeometry width="70" height="30" as="geometry"/>
                </mxCell>
                <mxCell id="160" value="商品ID" style="shape=partialRectangle;html=1;whiteSpace=wrap;connectable=0;fillColor=none;top=0;left=0;bottom=0;right=0;overflow=hidden;" parent="158" vertex="1">
                    <mxGeometry x="70" width="100" height="30" as="geometry"/>
                </mxCell>
                <mxCell id="161" value="INT" style="shape=partialRectangle;html=1;whiteSpace=wrap;connectable=0;fillColor=none;top=0;left=0;bottom=0;right=0;overflow=hidden;" parent="158" vertex="1">
                    <mxGeometry x="170" width="70" height="30" as="geometry"/>
                </mxCell>
                <mxCell id="162" style="shape=partialRectangle;html=1;whiteSpace=wrap;connectable=0;fillColor=none;top=0;left=0;bottom=0;right=0;overflow=hidden;" parent="158" vertex="1">
                    <mxGeometry x="240" width="60" height="30" as="geometry"/>
                </mxCell>
                <mxCell id="163" value="PK" style="shape=partialRectangle;html=1;whiteSpace=wrap;connectable=0;fillColor=none;top=0;left=0;bottom=0;right=0;overflow=hidden;" parent="158" vertex="1">
                    <mxGeometry x="300" width="80" height="30" as="geometry"/>
                </mxCell>
                <mxCell id="164" style="shape=partialRectangle;html=1;whiteSpace=wrap;connectable=0;fillColor=none;top=0;left=0;bottom=0;right=0;overflow=hidden;" parent="158" vertex="1">
                    <mxGeometry x="380" width="190" height="30" as="geometry"/>
                </mxCell>
                <mxCell id="165" value="AUTO INCREMENT" style="shape=partialRectangle;html=1;whiteSpace=wrap;connectable=0;fillColor=none;top=0;left=0;bottom=0;right=0;overflow=hidden;" parent="158" vertex="1">
                    <mxGeometry x="570" width="130" height="30" as="geometry"/>
                </mxCell>
                <mxCell id="166" value="" style="shape=partialRectangle;html=1;whiteSpace=wrap;collapsible=0;dropTarget=0;pointerEvents=0;fillColor=none;top=0;left=0;bottom=0;right=0;points=[[0,0.5],[1,0.5]];portConstraint=eastwest;" parent="149" vertex="1">
                    <mxGeometry y="90" width="700" height="30" as="geometry"/>
                </mxCell>
                <mxCell id="167" value="name" style="shape=partialRectangle;html=1;whiteSpace=wrap;connectable=0;fillColor=none;top=0;left=0;bottom=0;right=0;overflow=hidden;" parent="166" vertex="1">
                    <mxGeometry width="70" height="30" as="geometry"/>
                </mxCell>
                <mxCell id="168" value="商品名" style="shape=partialRectangle;html=1;whiteSpace=wrap;connectable=0;fillColor=none;top=0;left=0;bottom=0;right=0;overflow=hidden;" parent="166" vertex="1">
                    <mxGeometry x="70" width="100" height="30" as="geometry"/>
                </mxCell>
                <mxCell id="169" value="VARCHAR" style="shape=partialRectangle;html=1;whiteSpace=wrap;connectable=0;fillColor=none;top=0;left=0;bottom=0;right=0;overflow=hidden;" parent="166" vertex="1">
                    <mxGeometry x="170" width="70" height="30" as="geometry"/>
                </mxCell>
                <mxCell id="170" value="32" style="shape=partialRectangle;html=1;whiteSpace=wrap;connectable=0;fillColor=none;top=0;left=0;bottom=0;right=0;overflow=hidden;" parent="166" vertex="1">
                    <mxGeometry x="240" width="60" height="30" as="geometry"/>
                </mxCell>
                <mxCell id="171" style="shape=partialRectangle;html=1;whiteSpace=wrap;connectable=0;fillColor=none;top=0;left=0;bottom=0;right=0;overflow=hidden;" parent="166" vertex="1">
                    <mxGeometry x="300" width="80" height="30" as="geometry"/>
                </mxCell>
                <mxCell id="172" style="shape=partialRectangle;html=1;whiteSpace=wrap;connectable=0;fillColor=none;top=0;left=0;bottom=0;right=0;overflow=hidden;" parent="166" vertex="1">
                    <mxGeometry x="380" width="190" height="30" as="geometry"/>
                </mxCell>
                <mxCell id="173" value="NOT NULL" style="shape=partialRectangle;html=1;whiteSpace=wrap;connectable=0;fillColor=none;top=0;left=0;bottom=0;right=0;overflow=hidden;" parent="166" vertex="1">
                    <mxGeometry x="570" width="130" height="30" as="geometry"/>
                </mxCell>
                <mxCell id="174" value="" style="shape=partialRectangle;html=1;whiteSpace=wrap;collapsible=0;dropTarget=0;pointerEvents=0;fillColor=none;top=0;left=0;bottom=0;right=0;points=[[0,0.5],[1,0.5]];portConstraint=eastwest;" parent="149" vertex="1">
                    <mxGeometry y="120" width="700" height="30" as="geometry"/>
                </mxCell>
                <mxCell id="175" value="price" style="shape=partialRectangle;html=1;whiteSpace=wrap;connectable=0;fillColor=none;top=0;left=0;bottom=0;right=0;overflow=hidden;" parent="174" vertex="1">
                    <mxGeometry width="70" height="30" as="geometry"/>
                </mxCell>
                <mxCell id="176" value="価格(税抜)" style="shape=partialRectangle;html=1;whiteSpace=wrap;connectable=0;fillColor=none;top=0;left=0;bottom=0;right=0;overflow=hidden;" parent="174" vertex="1">
                    <mxGeometry x="70" width="100" height="30" as="geometry"/>
                </mxCell>
                <mxCell id="177" value="INT" style="shape=partialRectangle;html=1;whiteSpace=wrap;connectable=0;fillColor=none;top=0;left=0;bottom=0;right=0;overflow=hidden;" parent="174" vertex="1">
                    <mxGeometry x="170" width="70" height="30" as="geometry"/>
                </mxCell>
                <mxCell id="178" value="" style="shape=partialRectangle;html=1;whiteSpace=wrap;connectable=0;fillColor=none;top=0;left=0;bottom=0;right=0;overflow=hidden;" parent="174" vertex="1">
                    <mxGeometry x="240" width="60" height="30" as="geometry"/>
                </mxCell>
                <mxCell id="179" style="shape=partialRectangle;html=1;whiteSpace=wrap;connectable=0;fillColor=none;top=0;left=0;bottom=0;right=0;overflow=hidden;" parent="174" vertex="1">
                    <mxGeometry x="300" width="80" height="30" as="geometry"/>
                </mxCell>
                <mxCell id="180" value="" style="shape=partialRectangle;html=1;whiteSpace=wrap;connectable=0;fillColor=none;top=0;left=0;bottom=0;right=0;overflow=hidden;" parent="174" vertex="1">
                    <mxGeometry x="380" width="190" height="30" as="geometry"/>
                </mxCell>
                <mxCell id="181" value="NOT NULL" style="shape=partialRectangle;html=1;whiteSpace=wrap;connectable=0;fillColor=none;top=0;left=0;bottom=0;right=0;overflow=hidden;" parent="174" vertex="1">
                    <mxGeometry x="570" width="130" height="30" as="geometry"/>
                </mxCell>
                <mxCell id="182" value="" style="shape=partialRectangle;html=1;whiteSpace=wrap;collapsible=0;dropTarget=0;pointerEvents=0;fillColor=none;top=0;left=0;bottom=0;right=0;points=[[0,0.5],[1,0.5]];portConstraint=eastwest;" parent="149" vertex="1">
                    <mxGeometry y="150" width="700" height="30" as="geometry"/>
                </mxCell>
                <mxCell id="183" value="image" style="shape=partialRectangle;html=1;whiteSpace=wrap;connectable=0;fillColor=none;top=0;left=0;bottom=0;right=0;overflow=hidden;" parent="182" vertex="1">
                    <mxGeometry width="70" height="30" as="geometry"/>
                </mxCell>
                <mxCell id="184" value="画像" style="shape=partialRectangle;html=1;whiteSpace=wrap;connectable=0;fillColor=none;top=0;left=0;bottom=0;right=0;overflow=hidden;" parent="182" vertex="1">
                    <mxGeometry x="70" width="100" height="30" as="geometry"/>
                </mxCell>
                <mxCell id="185" value="VARCHAR" style="shape=partialRectangle;html=1;whiteSpace=wrap;connectable=0;fillColor=none;top=0;left=0;bottom=0;right=0;overflow=hidden;" parent="182" vertex="1">
                    <mxGeometry x="170" width="70" height="30" as="geometry"/>
                </mxCell>
                <mxCell id="186" value="32" style="shape=partialRectangle;html=1;whiteSpace=wrap;connectable=0;fillColor=none;top=0;left=0;bottom=0;right=0;overflow=hidden;" parent="182" vertex="1">
                    <mxGeometry x="240" width="60" height="30" as="geometry"/>
                </mxCell>
                <mxCell id="187" style="shape=partialRectangle;html=1;whiteSpace=wrap;connectable=0;fillColor=none;top=0;left=0;bottom=0;right=0;overflow=hidden;" parent="182" vertex="1">
                    <mxGeometry x="300" width="80" height="30" as="geometry"/>
                </mxCell>
                <mxCell id="188" value="ファイル名" style="shape=partialRectangle;html=1;whiteSpace=wrap;connectable=0;fillColor=none;top=0;left=0;bottom=0;right=0;overflow=hidden;" parent="182" vertex="1">
                    <mxGeometry x="380" width="190" height="30" as="geometry"/>
                </mxCell>
                <mxCell id="189" value="NOT NULL" style="shape=partialRectangle;html=1;whiteSpace=wrap;connectable=0;fillColor=none;top=0;left=0;bottom=0;right=0;overflow=hidden;" parent="182" vertex="1">
                    <mxGeometry x="570" width="130" height="30" as="geometry"/>
                </mxCell>
                <mxCell id="190" value="" style="shape=partialRectangle;html=1;whiteSpace=wrap;collapsible=0;dropTarget=0;pointerEvents=0;fillColor=none;top=0;left=0;bottom=0;right=0;points=[[0,0.5],[1,0.5]];portConstraint=eastwest;" parent="149" vertex="1">
                    <mxGeometry y="180" width="700" height="30" as="geometry"/>
                </mxCell>
                <mxCell id="191" value="comment" style="shape=partialRectangle;html=1;whiteSpace=wrap;connectable=0;fillColor=none;top=0;left=0;bottom=0;right=0;overflow=hidden;" parent="190" vertex="1">
                    <mxGeometry width="70" height="30" as="geometry"/>
                </mxCell>
                <mxCell id="192" value="コメント" style="shape=partialRectangle;html=1;whiteSpace=wrap;connectable=0;fillColor=none;top=0;left=0;bottom=0;right=0;overflow=hidden;" parent="190" vertex="1">
                    <mxGeometry x="70" width="100" height="30" as="geometry"/>
                </mxCell>
                <mxCell id="193" value="VARCHAR" style="shape=partialRectangle;html=1;whiteSpace=wrap;connectable=0;fillColor=none;top=0;left=0;bottom=0;right=0;overflow=hidden;" parent="190" vertex="1">
                    <mxGeometry x="170" width="70" height="30" as="geometry"/>
                </mxCell>
                <mxCell id="194" value="100" style="shape=partialRectangle;html=1;whiteSpace=wrap;connectable=0;fillColor=none;top=0;left=0;bottom=0;right=0;overflow=hidden;" parent="190" vertex="1">
                    <mxGeometry x="240" width="60" height="30" as="geometry"/>
                </mxCell>
                <mxCell id="195" style="shape=partialRectangle;html=1;whiteSpace=wrap;connectable=0;fillColor=none;top=0;left=0;bottom=0;right=0;overflow=hidden;" parent="190" vertex="1">
                    <mxGeometry x="300" width="80" height="30" as="geometry"/>
                </mxCell>
                <mxCell id="196" value="" style="shape=partialRectangle;html=1;whiteSpace=wrap;connectable=0;fillColor=none;top=0;left=0;bottom=0;right=0;overflow=hidden;" parent="190" vertex="1">
                    <mxGeometry x="380" width="190" height="30" as="geometry"/>
                </mxCell>
                <mxCell id="197" value="NOT NULL&lt;br&gt;DEFAULT ''" style="shape=partialRectangle;html=1;whiteSpace=wrap;connectable=0;fillColor=none;top=0;left=0;bottom=0;right=0;overflow=hidden;" parent="190" vertex="1">
                    <mxGeometry x="570" width="130" height="30" as="geometry"/>
                </mxCell>
            </root>
        </mxGraphModel>
    </diagram>
    <diagram id="H4hf5S0NysHM5lJEEXw0" name="ページ2">
        <mxGraphModel dx="1138" dy="680" grid="1" gridSize="10" guides="1" tooltips="1" connect="1" arrows="1" fold="1" page="1" pageScale="1" pageWidth="827" pageHeight="1169" math="0" shadow="0">
            <root>
                <mxCell id="xSiGxSWV9hVzp4Wx3kVa-0"/>
                <mxCell id="xSiGxSWV9hVzp4Wx3kVa-1" parent="xSiGxSWV9hVzp4Wx3kVa-0"/>
            </root>
        </mxGraphModel>
    </diagram>
</mxfile>